<svg width="53" height="17" viewBox="0 0 53 17" fill="none" xmlns="http://www.w3.org/2000/svg">
<path d="M9.19551 5.58203L11.3723 2.86328L13.8898 0.0302734L18.4914 0L11.7854 7.47168L11.5852 7.36719L8.03438 11.6855L6.85371 13.0879L4.58907 16H0.300003L6.85371 7.93359L0.466019 0H5.06758L9.19551 5.58203ZM17.9113 16H13.4436L10.0148 11.4062L12.1154 8.85059L17.9113 16Z" fill="black"/>
<path fill-rule="evenodd" clip-rule="evenodd" d="M23.8374 0C20.0442 0 16.9582 3.58579 16.9582 7.99267C16.9582 12.4001 20.0442 15.9861 23.8374 15.9863H29.2341V12.2973H23.8374C21.7949 12.2973 20.312 10.3663 20.312 7.99286C20.312 5.62011 21.7949 3.68903 23.8374 3.68903H34.4198V0H23.8374ZM31.3505 9.89902V15.9659H34.5253V9.28438C34.5253 7.58912 33.3384 6.21015 31.8796 6.21015H23.8374V9.89902H31.3505Z" fill="black"/>
<path fill-rule="evenodd" clip-rule="evenodd" d="M42.1642 2.48022C38.3789 2.48022 35.8 5.50973 35.8 9.23293C35.8 12.9566 38.3789 15.9863 42.1642 15.9863H45.5004C49.2857 15.9863 51.8 12.9568 51.8 9.23293C51.8 5.50973 49.286 2.48022 45.5004 2.48022H42.1642ZM42.1644 12.9327C40.1261 12.9327 38.9683 11.2381 38.9683 9.23293C38.9683 7.22827 40.1259 5.59678 42.1644 5.59678H45.5006C47.5389 5.59678 48.6321 7.22844 48.6321 9.23293C48.6321 11.2381 47.5389 12.9327 45.5006 12.9327H42.1644Z" fill="black" stroke="black" stroke-width="0.542975"/>
</svg>
